Coordinates
version=1
nRows=9
nColumns=63
inDegrees=yes

Units are S.I. units (second, meters, Newtons, ...)
If the header above contains a line with 'inDegrees', this indicates whether rotational values are in degrees (yes) or radians (no).

endheader
time	pelvis_tilt	pelvis_list	pelvis_rotation	pelvis_tx	pelvis_ty	pelvis_tz	hip_flexion_r	hip_adduction_r	hip_rotation_r	knee_angle_r	knee_angle_r_beta	ankle_angle_r	subtalar_angle_r	mtp_angle_r	hip_flexion_l	hip_adduction_l	hip_rotation_l	knee_angle_l	knee_angle_l_beta	ankle_angle_l	subtalar_angle_l	mtp_angle_l	L5_S1_Flex_Ext	L5_S1_Lat_Bending	L5_S1_axial_rotation	L4_L5_Flex_Ext	L4_L5_Lat_Bending	L4_L5_axial_rotation	L3_L4_Flex_Ext	L3_L4_Lat_Bending	L3_L4_axial_rotation	L2_L3_Flex_Ext	L2_L3_Lat_Bending	L2_L3_axial_rotation	L1_L2_Flex_Ext	L1_L2_Lat_Bending	L1_L2_axial_rotation	L1_T12_Flex_Ext	L1_T12_Lat_Bending	L1_T12_axial_rotation	Abs_r3	Abs_r2	Abs_r1	Abs_t1	Abs_t2	neck_flexion	neck_bending	neck_rotation	arm_flex_r	arm_add_r	arm_rot_r	elbow_flex_r	pro_sup_r	wrist_flex_r	wrist_dev_r	arm_flex_l	arm_add_l	arm_rot_l	elbow_flex_l	pro_sup_l	wrist_flex_l	wrist_dev_l
      2.35714286	     -3.03864417	     -4.55587569	     89.61019739	      0.29714164	      0.75726285	      0.65728847	      5.91117567	     -2.45534896	     -8.27165940	     11.32326241	      0.19762821	     31.63013950	     16.16671934	      0.00000000	      7.28421111	      1.00897133	     -8.10632634	     10.74147493	      0.18747410	     31.47226822	     14.24718171	      0.00000000	     -0.12514161	     -0.53534691	     -2.31501730	     -0.23240049	     -0.71201139	     -2.45970588	     -0.20559515	     -1.30164248	     -2.45970588	     -0.14302435	     -1.30164248	     -2.02564014	     -0.11620650	     -1.09167942	     -1.88095156	     -0.07150592	     -0.82925236	     -1.73626298	     -0.89387402	     -6.05595132	    -12.87543172	      0.00000000	      0.00000000	      8.39855179	     -0.67458785	     12.74935856	     19.56542978	    -18.50397375	     50.21664821	     80.27259948	     58.80687826	      9.19551641	     21.60905674	      9.28258461	    -20.57490981	     34.82194688	     89.09149829	     89.28283047	     17.83289677	     22.52179025
      2.37500000	     -2.88542329	     -4.73327617	     89.84189010	      0.29703382	      0.75732449	      0.65610203	      5.81668125	     -2.24615331	     -8.27677057	     10.92450185	      0.19066853	     31.42023688	     15.97407102	      0.00000000	      7.39282982	      0.88955055	     -7.51804787	     10.75884791	      0.18777732	     31.35358413	     14.04366839	      0.00000000	     -0.09981649	     -0.51926234	     -2.31149269	     -0.18536921	     -0.69061891	     -2.45596098	     -0.16398852	     -1.26253446	     -2.45596098	     -0.11408027	     -1.26253446	     -2.02255610	     -0.09268960	     -1.05887977	     -1.87808781	     -0.05703515	     -0.80433737	     -1.73361951	     -0.71297924	     -5.87399946	    -12.85582887	      0.00000000	      0.00000000	      8.43736796	     -0.67922392	     12.36388275	     21.00069297	    -18.97880168	     52.78835184	     80.39920612	     61.11929622	      8.74547195	     17.79968878	      8.54487953	    -20.95409952	     33.39109202	     89.48600544	     89.24582460	     22.76775275	     23.46140533
      2.39285714	     -2.71358892	     -4.86143270	     90.17001164	      0.29689904	      0.75751013	      0.65464880	      5.64020066	     -2.03007221	     -8.30190274	     10.54621828	      0.18406623	     31.17852186	     15.77363249	      0.00000000	      7.41794337	      0.74724741	     -6.84697321	     10.69372975	      0.18664079	     31.26483336	     13.91995924	      0.00000000	     -0.07900523	     -0.50101845	     -2.31481726	     -0.14672061	     -0.66635453	     -2.45949334	     -0.12979769	     -1.21817625	     -2.45949334	     -0.09029508	     -1.21817625	     -2.02546510	     -0.07336425	     -1.02167681	     -1.88078902	     -0.04514359	     -0.77607757	     -1.73611294	     -0.56432644	     -5.66762086	    -12.87431914	      0.00000000	      0.00000000	      8.50718193	     -0.69042459	     12.14171216	     22.06803885	    -19.33860033	     55.22431427	     80.46453518	     64.48551545	      7.77579205	     13.41422956	      7.56531846	    -21.06191656	     31.30688482	     89.75180471	     89.13812541	     27.10036698	     23.94571072
      2.41071429	     -2.55532708	     -4.94769361	     90.59653015	      0.29676362	      0.75782962	      0.65345290	      5.40542555	     -1.80083222	     -8.45571545	     10.10849336	      0.17642649	     30.93527830	     15.43216380	      0.00000000	      7.44643837	      0.61846570	     -6.40996430	     10.61437038	      0.18525571	     31.19709731	     13.85302085	      0.00000000	     -0.06328713	     -0.48753923	     -2.31793984	     -0.11753052	     -0.64842717	     -2.46281108	     -0.10397442	     -1.18540288	     -2.46281108	     -0.07233086	     -1.18540288	     -2.02819736	     -0.05876843	     -0.99418999	     -1.88332612	     -0.03616226	     -0.75519826	     -1.73845488	     -0.45205362	     -5.51514125	    -12.89168599	      0.00000000	      0.00000000	      8.48344247	     -0.59752562	     11.96947258	     22.85386167	    -19.50172276	     57.35544916	     80.47027712	     67.26342023	      6.30975631	     10.22169421	      6.77551721	    -21.20834046	     29.44272554	     89.95371810	     88.89250984	     29.43388211	     23.75190972
      2.42857143	     -2.36732507	     -4.92705744	     90.90976717	      0.29695022	      0.75835369	      0.65209878	      5.11424173	     -1.54874884	     -8.59976424	      9.77897490	      0.17067531	     30.69907881	     15.33824533	      0.00000000	      7.36004171	      0.41222410	     -6.32511820	     10.54482786	      0.18404197	     31.27181483	     13.89636838	      0.00000000	     -0.05228738	     -0.47992660	     -2.27689083	     -0.09710289	     -0.63830238	     -2.41919650	     -0.08590293	     -1.16689355	     -2.41919650	     -0.05975924	     -1.16689355	     -1.99227947	     -0.04855406	     -0.97866633	     -1.84997380	     -0.02987701	     -0.74340631	     -1.70766812	     -0.37348350	     -5.42902573	    -12.66338371	      0.00000000	      0.00000000	      8.17343711	     -0.38900787	     11.34819967	     22.74091510	    -19.31839508	     58.06619874	     80.48843159	     67.23323435	      5.72897690	      9.74036421	      6.20775103	    -21.47121185	     28.08102860	     90.15088812	     88.24580032	     29.49512365	     23.40102254
      2.44642857	     -2.16802958	     -4.84683532	     91.51326209	      0.29652548	      0.75900687	      0.65100575	      4.67091543	     -1.24971462	     -8.53078041	      9.26533233	      0.16171056	     30.31573748	     14.49029498	      0.00000000	      7.30342012	      0.21299724	     -6.25500030	     10.53858577	      0.18393302	     31.34554504	     14.21760436	      0.00000000	     -0.04988028	     -0.45741614	     -2.42940794	     -0.09263267	     -0.60836347	     -2.58124594	     -0.08194831	     -1.11216161	     -2.58124594	     -0.05700817	     -1.11216161	     -2.12573195	     -0.04631883	     -0.93276300	     -1.97389395	     -0.02850159	     -0.70853761	     -1.82205596	     -0.35628985	     -5.17438290	    -13.51163816	      0.00000000	      0.00000000	      7.88652744	     -0.39899042	     12.17480502	     23.78754100	    -19.03112180	     61.58487758	     80.53034057	     60.47853732	      0.81679126	      7.71559434	      4.94811868	    -21.51659320	     25.41038927	     90.63362639	     87.26619486	     29.60819640	     23.98420427
      2.46428571	     -1.89791647	     -4.64506259	     91.84849802	      0.29690464	      0.75980444	      0.64988787	      4.30241732	     -0.88707305	     -8.79554696	      9.13756310	      0.15948056	     30.06728132	     14.33905408	      0.00000000	      7.07219168	     -0.11076172	     -6.29922116	     10.47928684	      0.18289806	     31.45445614	     14.21973526	      0.00000000	     -0.06702900	     -0.43937481	     -2.42815769	     -0.12447956	     -0.58436850	     -2.57991754	     -0.11012194	     -1.06829592	     -2.57991754	     -0.07660744	     -1.06829592	     -2.12463798	     -0.06224313	     -0.89597312	     -1.97287812	     -0.03830037	     -0.68059158	     -1.82111826	     -0.47878145	     -4.97029575	    -13.50468461	      0.00000000	      0.00000000	      7.50844890	     -0.32501463	     11.96494571	     23.30479604	    -18.17188046	     61.38408263	     80.33643315	     59.76053727	      0.47342056	      7.78077294	      4.38521231	    -21.79758822	     23.94470927	     90.90799673	     86.29193601	     29.11543239	     23.98363517
      2.48214286	     -1.77003440	     -4.53266174	     92.77889758	      0.29606541	      0.76013739	      0.64858508	      3.69307648	     -0.63204639	     -8.62858406	      8.40076169	      0.14662095	     29.76769714	     13.14315909	      0.00000000	      7.01525487	     -0.23560668	     -6.12898535	     10.51243005	      0.18347652	     31.57015601	     14.92304055	      0.00000000	     -0.06598922	     -0.42732456	     -2.67876968	     -0.12254858	     -0.56834166	     -2.84619278	     -0.10841369	     -1.03899693	     -2.84619278	     -0.07541908	     -1.03899693	     -2.34392347	     -0.06127759	     -0.87140024	     -2.17650036	     -0.03770624	     -0.66192574	     -2.00907726	     -0.47135440	     -4.83398086	    -14.89851331	      0.00000000	      0.00000000	      7.26488178	     -0.06614971	     13.10585211	     24.29410605	    -17.03323251	     63.81099089	     80.17927856	     52.11782117	     -1.38522321	      7.88083716	      2.38560859	    -22.04464810	     21.36970246	     92.39418522	     83.35490415	     25.45467322	     26.80276805
      2.50000000	     -1.56950499	     -4.41464284	     93.43903377	      0.29584169	      0.76040886	      0.64724442	      3.25808131	     -0.31441756	     -8.80176052	      7.97786656	      0.13924004	     29.58264431	     12.61072865	      0.00000000	      6.92063743	     -0.46286471	     -5.86084979	     10.56921308	      0.18446757	     31.66415047	     15.16302427	      0.00000000	     -0.06864625	     -0.41272012	     -2.80716574	     -0.12748295	     -0.54891776	     -2.98261360	     -0.11277892	     -1.00348770	     -2.98261360	     -0.07845580	     -1.00348770	     -2.45627002	     -0.06374491	     -0.84161887	     -2.28082217	     -0.03922447	     -0.63930347	     -2.10537431	     -0.49033329	     -4.66877254	    -15.61261371	      0.00000000	      0.00000000	      7.10186872	      0.04346057	     13.53528731	     24.56259862	    -15.61051102	     64.25924674	     79.56247091	     51.92396132	     -0.83800709	      8.33893115	      0.46624685	    -22.20298784	     19.05674097	     93.65095155	     83.51307081	     23.56064474	     27.16336801
